# xmcd CD database file
#
# Track frame offsets:
#	150
#	22010
#	43246
#	69497
#	85285
#	110707
#	139246
#	162876
#	181676
#	203506
#	224524
#	246483
#
# Disc length: 3867 seconds
#
# Revision: 0
# Processed by: cddbd v1.5.2PL0 Copyright (c) Steve Scherf et al.
# Submitted via: CDex 1.70beta2
#
DISCID=b10f190c
DTITLE=Various Artist - Break n' Bossa - the maximum joy
DYEAR=2004
DGENRE=Jazz
TTITLE0=Gerardo Frisina - Mas eu quer ser
TTITLE1=Was-A-Bee - This is What You Are
TTITLE2=Soulstance - The Aftermath of Love
TTITLE3=Balanco - More
TTITLE4=S-Tone Inc. - Rendez-vous a minuit
TTITLE5=Toco - Instalacao do samba
TTITLE6=The Dining Rooms - Tunnel
TTITLE7=Neos - G-Bossa
TTITLE8=Soulstance - Lift Up
TTITLE9=Nicola Conte apresenta Rosalia De Souza - Tempo futuro
TTITLE10=Paolo Fedreghini e Marco Bianchi feat. Ermanno Principe - Oriental Smile
TTITLE11=The Dining Rooms - Fluxus
EXTD=YEAR: 2004
EXTT0=
EXTT1=
EXTT2=
EXTT3=
EXTT4=
EXTT5=
EXTT6=
EXTT7=
EXTT8=
EXTT9=
EXTT10=
EXTT11=
PLAYORDER=
